<svg xmlns="http://www.w3.org/2000/svg" width="464.32" height="528" viewBox="0 0 464.32 528"><defs><style>.a{fill:#707070;}</style></defs><g transform="translate(-5.618 -2)"><path class="a" d="M272.218,82.8c-7.92-11.44-21.12-7.04-29.04-5.28-1.76.88-3.52.88-5.28,1.76a12.508,12.508,0,0,1,1.76-5.28c2.64-8.8,7.04-21.12-4.4-29.04-10.56-7.04-21.12.88-28.16,6.16-.88.88-2.64,1.76-3.52,2.64v-4.4c0-7.92-.88-22-14.08-25.52-12.32-2.64-19.36,8.8-24.64,15.84-.88.88-1.76,2.64-2.64,3.52-.88-1.76-.88-2.64-1.76-4.4-3.52-7.92-7.92-20.24-22-19.36-13.2,1.76-15.84,14.96-17.6,22.88,0,.88-.88,2.64-.88,4.4-.88-.88-1.76-2.64-2.64-3.52-6.16-7.04-14.96-16.72-27.28-11.44-11.44,6.16-9.68,19.36-8.8,28.16,0,1.76.88,3.52.88,5.28-1.76-.88-2.64-1.76-4.4-1.76-7.04-3.52-20.24-10.56-29.92-.88-8.8,9.68-2.64,21.12,1.76,29.04.88,1.76,1.76,4.4,2.64,6.16h-6.16c-8.8-.88-22.88-1.76-28.16,11.44-1.76,4.4,0,9.68,4.4,11.44s9.68,0,11.44-4.4c.88-1.76,7.04-.88,10.56-.88,7.92.88,17.6.88,22.88-7.04s.88-17.6-2.64-24.64c-.88-2.64-3.52-7.04-3.52-8.8,1.76,0,6.16,2.64,8.8,3.52,7.04,3.52,15.84,7.92,23.76,2.64s7.04-15.84,5.28-23.76c0-2.64-.88-7.04-.88-8.8l6.16,6.16c5.28,6.16,12.32,13.2,21.12,10.56,9.68-2.64,11.44-12.32,13.2-20.24a32.657,32.657,0,0,0,1.76-7.92,69.789,69.789,0,0,1,3.52,7.92c2.64,7.92,7.04,16.72,15.84,17.6,9.68.88,14.96-7.92,19.36-14.08.88-1.76,3.52-5.28,4.4-7.04.88,2.64.88,6.16.88,8.8,0,7.92.88,18.48,9.68,22,8.8,4.4,16.72-1.76,22.88-7.04a36.724,36.724,0,0,1,7.04-5.28c0,2.64-1.76,6.16-2.64,8.8-2.64,7.92-5.28,17.6.88,23.76,7.04,7.04,16.72,4.4,23.76,2.64a85.221,85.221,0,0,1,9.68-2.64c0,1.76-3.52,6.16-5.28,8.8-4.4,6.16-11.44,14.96-7.04,23.76q2.64,5.28,7.92,5.28c.88,0,2.64,0,3.52-.88a7.766,7.766,0,0,0,4.4-10.56c.88-1.76,2.64-5.28,4.4-7.04C271.338,104.8,279.258,94.24,272.218,82.8Z" transform="translate(90.52 135.68)"/><path class="a" d="M456.9,361.92a25.1,25.1,0,0,0-29.92,2.64l-24.64-14.08a201.614,201.614,0,0,0,18.48-56.32l35.2,3.52,1.76-17.6-35.2-3.52c0-3.52.88-7.04.88-10.56a42.845,42.845,0,0,0-.88-10.56l35.2-3.52-1.76-17.6-35.2,3.52c-2.64-20.24-9.68-38.72-18.48-56.32l24.64-14.08a25.1,25.1,0,0,0,29.92,2.64c12.32-7.04,16.72-23.76,9.68-36.08s-23.76-16.72-36.08-9.68c-9.68,6.16-14.96,16.72-12.32,27.28l-24.64,14.08c-10.56-16.72-24.64-31.68-39.6-44l21.12-29.04-14.08-10.56-21.12,29.04-18.48-10.56L335.458,68l-15.84-7.04-14.08,32.56a185.045,185.045,0,0,0-58.08-12.32V53.04a25.633,25.633,0,0,0,17.6-24.64,26.4,26.4,0,0,0-52.8,0,25.633,25.633,0,0,0,17.6,24.64V81.2a185.045,185.045,0,0,0-58.08,12.32L157.7,60.96,141.858,68l14.08,32.56-18.48,10.56-21.12-29.04-14.08,10.56,21.12,29.04a171.357,171.357,0,0,0-39.6,44L58.258,151.6c1.76-10.56-2.64-22-12.32-27.28-13.2-7.04-29.92-2.64-36.96,9.68s-2.64,29.04,9.68,36.08a25.1,25.1,0,0,0,29.92-2.64l24.64,14.08a201.614,201.614,0,0,0-18.48,56.32l-35.2-3.52-1.76,17.6,35.2,3.52c0,3.52-.88,7.04-.88,10.56a42.844,42.844,0,0,0,.88,10.56l-35.2,3.52,1.76,17.6,35.2-3.52c2.64,20.24,9.68,38.72,18.48,56.32l-24.64,14.08a25.1,25.1,0,0,0-29.92-2.64c-12.32,7.04-16.72,23.76-9.68,36.08s23.76,16.72,36.08,9.68c9.68-6.16,14.96-16.72,12.32-27.28l24.64-14.08c10.56,16.72,24.64,31.68,39.6,44L100.5,439.36l14.08,10.56,21.12-29.04,18.48,10.56L140.1,464l15.84,7.04,14.08-32.56A185.046,185.046,0,0,0,228.1,450.8v28.16a25.633,25.633,0,0,0-17.6,24.64,26.4,26.4,0,0,0,52.8,0,25.633,25.633,0,0,0-17.6-24.64V450.8a185.044,185.044,0,0,0,58.08-12.32l14.08,32.56L333.7,464l-14.08-32.56,18.48-10.56,21.12,29.04,14.08-10.56-21.12-29.04a171.357,171.357,0,0,0,39.6-44l24.64,14.08c-1.76,10.56,2.64,22,12.32,27.28,12.32,7.04,29.04,2.64,36.08-9.68S469.218,368.96,456.9,361.92Zm-113.52,34.32-10.56-14.08-14.08,10.56L329.3,406.8a132.47,132.47,0,0,1-14.96,8.8l-7.04-15.84-16.72,6.16,7.04,15.84a164.858,164.858,0,0,1-51.04,10.56V415.6h-17.6v16.72a164.857,164.857,0,0,1-51.04-10.56l7.04-15.84-15.84-7.04-7.04,15.84c-5.28-2.64-10.56-5.28-14.96-8.8l10.56-14.08-14.08-10.56-11.44,14.96c-13.2-11.44-25.52-23.76-35.2-38.72l14.96-8.8-8.8-14.96-14.96,8.8a154.146,154.146,0,0,1-15.84-49.28l16.72-1.76-1.76-17.6-15.84.88c0-2.64-.88-6.16-.88-8.8s0-6.16.88-8.8l16.72,1.76,1.76-17.6-16.72-1.76a154.146,154.146,0,0,1,15.84-49.28l14.96,8.8,8.8-14.96-14.96-8.8c9.68-14.96,21.12-28.16,35.2-38.72l10.56,14.08,14.08-10.56-10.56-14.08a132.477,132.477,0,0,1,14.96-8.8l7.04,15.84,15.84-7.04-7.04-15.84a164.857,164.857,0,0,1,51.04-10.56V116.4h17.6V99.68a164.858,164.858,0,0,1,51.04,10.56l-7.04,15.84,15.84,7.04,7.04-15.84c5.28,2.64,10.56,5.28,14.96,8.8l-10.56,14.08,14.08,10.56,10.56-14.08c13.2,11.44,25.52,23.76,35.2,38.72l-14.96,8.8,8.8,14.96,14.96-8.8a154.146,154.146,0,0,1,15.84,49.28l-16.72,1.76,1.76,17.6,16.72-1.76c0,2.64.88,6.16.88,8.8s0,6.16-.88,8.8l-16.72-1.76-1.76,17.6,16.72,1.76a154.146,154.146,0,0,1-15.84,49.28l-14.96-8.8-8.8,14.96,14.96,8.8A185.272,185.272,0,0,1,343.378,396.24Z" transform="translate(0 0)"/></g></svg>