<svg xmlns="http://www.w3.org/2000/svg" width="446.138" height="117.97" viewBox="0 0 446.138 117.97"><defs><style>.a,.e{fill:#2b2b2a;}.b{fill:none;stroke:#2b2b2a;stroke-miterlimit:5.533;stroke-width:2px;}.c{fill:#de0000;}.d{fill:#ffcf00;}.e{fill-rule:evenodd;}</style></defs><g transform="translate(-119.55 -38.24)"><path class="a" d="M123.875,176.2h3.087l-.933,2.944h-3.087Zm4.391-4.164-1,3.149h-3.087l.981-3.149h-1.077l-.981,3.149h-2.381V176.2h2.058l-.933,2.944h-2.3v1.014h2l-1.029,3.3h1.091l1.014-3.3h3.1l-1.029,3.3h1.077l1.014-3.3H129.2v-1.014h-2.091l.933-2.944h2.315v-1.014h-2.01l.981-3.149Z" transform="translate(0 -84.631)"/><path class="a" d="M514.813,179.83c3.5,0,6.008-1.966,6.008-5.218,0-2.866-1.613-4.454-4.509-5.571l-2.569-.985c-1.966-.764-2.9-1.558-2.9-3.333s1.665-2.977,3.77-2.977a4.892,4.892,0,0,1,3.962,2l1.613-1.312a6.7,6.7,0,0,0-5.49-2.65c-3.359,0-5.928,1.94-5.928,4.972,0,2.65,1.283,4.153,4.289,5.3l2.87,1.091c1.775.684,2.815,1.83,2.815,3.524,0,2-1.749,3.2-3.906,3.2a5.525,5.525,0,0,1-5-2.76l-1.72,1.231C509,178.272,511.591,179.83,514.813,179.83Zm-20.156,0c4.424,0,7.486-3.006,7.486-7.838V160.107h-2.076v11.936c0,3.741-2.157,5.817-5.409,5.817s-5.409-2.076-5.409-5.817V160.107h-2.076v11.881C487.171,176.824,490.232,179.83,494.657,179.83Zm-24.61-11.256v-6.53h4.017c2.458,0,3.877,1.121,3.877,3.278s-1.418,3.252-3.877,3.252ZM467.97,179.5h2.076v-9.014h2.212l7.677,9.014h2.7l-7.647-8.985c3.142-.246,5.053-2.242,5.053-5.189,0-3.168-2.187-5.218-5.736-5.218H467.97V179.5Zm-9.944,0H460.1v-19.4h-2.076Zm-15.489,0h1.694l8.331-19.4h-2.293l-6.883,16.008L436.5,160.107H434.18Z" transform="translate(-199.008 -76.876)"/><path class="b" d="M358.868,179.83c3.5,0,6.008-1.966,6.008-5.218,0-2.866-1.613-4.454-4.505-5.571l-2.569-.985c-1.966-.764-2.9-1.558-2.9-3.333s1.665-2.977,3.77-2.977a4.891,4.891,0,0,1,3.962,2l1.613-1.312a6.7,6.7,0,0,0-5.49-2.65c-3.359,0-5.928,1.94-5.928,4.972,0,2.65,1.283,4.153,4.289,5.3l2.866,1.091c1.775.684,2.815,1.83,2.815,3.524,0,2-1.749,3.2-3.906,3.2a5.525,5.525,0,0,1-5-2.76l-1.72,1.231C353.047,178.272,355.645,179.83,358.868,179.83Zm-20.241-.327h1.694l8.331-19.4h-2.293l-6.883,16.008-6.883-16.008H330.27Z" transform="translate(-133.284 -76.876)"/><path class="a" d="M209.112,168.372v-3.715H211.9c1.283,0,2.212.684,2.212,1.859a1.962,1.962,0,0,1-2.212,1.856Zm-4.34,11.693h4.344v-8h.709l6.446,8h5.218l-6.857-8.551c2.458-.875,3.8-2.484,3.8-5a5.726,5.726,0,0,0-6.008-5.847h-7.647Zm-10.9,0h4.344v-19.4h-4.344Zm-26.3,0h3.906l3.881-12.785,3.851,12.785h3.932l6.038-19.4h-4.645l-3.524,12.373-3.77-12.373h-3.826l-3.77,12.318-3.524-12.318H161.53Z" transform="translate(-26.553 -77.439)"/><path class="a" d="M318.284,233.376a3.382,3.382,0,0,0,2.37-.849v-2.69h-2.5v.617h1.856v1.8a2.819,2.819,0,0,1-1.727.5,2.533,2.533,0,1,1-.1-5.064,2.613,2.613,0,0,1,1.812.669l.423-.481a3.16,3.16,0,0,0-2.234-.808,3.153,3.153,0,1,0,.1,6.3Zm-5.318-.1v-6.1h-.654v4.99l-3.892-4.99h-.577v6.1h.654v-4.99l3.892,4.99Zm-9.867.1a2.266,2.266,0,0,0,2.352-2.466v-3.737H304.8v3.752a1.706,1.706,0,1,1-3.4,0v-3.752h-.654v3.737A2.277,2.277,0,0,0,303.1,233.376Zm-7.736-3.535v-2.054h1.26c.772,0,1.22.353,1.22,1.029s-.448,1.022-1.22,1.022h-1.26Zm-.654,3.432h.654V230.44h.695l2.414,2.833h.849l-2.4-2.826a1.572,1.572,0,0,0,1.588-1.632,1.608,1.608,0,0,0-1.8-1.639h-1.992v6.1Zm-5.531,0h3.476v-.617h-2.826v-2.209h2.311v-.617h-2.311v-2.036h2.826v-.617h-3.476Zm-3.124,0h.654v-6.1h-.654Zm-4.5.1a3.381,3.381,0,0,0,2.37-.849v-2.69h-2.5v.617h1.856v1.8a2.827,2.827,0,0,1-1.727.5,2.533,2.533,0,1,1-.1-5.064,2.607,2.607,0,0,1,1.812.669l.419-.481a3.16,3.16,0,0,0-2.234-.808,3.153,3.153,0,1,0,.107,6.3Zm-8.2-.1h3.476v-.617H274v-2.209h2.311v-.617H274v-2.036h2.826v-.617h-3.476Zm-5.512-3.432v-2.054h1.26c.772,0,1.22.353,1.22,1.029s-.448,1.022-1.22,1.022h-1.26Zm-.654,3.432h.654V230.44h.695l2.414,2.833h.849l-2.4-2.826a1.572,1.572,0,0,0,1.588-1.632,1.608,1.608,0,0,0-1.8-1.639h-1.992v6.1Zm-3.9.1a1.675,1.675,0,0,0,1.889-1.639c0-.9-.507-1.4-1.418-1.753l-.808-.309c-.617-.239-.911-.489-.911-1.047s.526-.937,1.187-.937a1.539,1.539,0,0,1,1.246.628l.507-.412a2.108,2.108,0,0,0-1.727-.834,1.659,1.659,0,0,0-1.863,1.562c0,.834.4,1.3,1.349,1.665l.9.345a1.173,1.173,0,0,1,.886,1.106c0,.628-.548,1-1.227,1a1.745,1.745,0,0,1-1.573-.867l-.54.386A2.275,2.275,0,0,0,263.286,233.376Zm-7.118-.1h3.476v-.617h-2.826v-2.209h2.311v-.617h-2.311v-2.036h2.826v-.617h-3.476Zm-6.328-.617v-4.862h1.014a2.436,2.436,0,1,1,0,4.858H249.84Zm-.654.617h1.665a3.058,3.058,0,1,0,0-6.1h-1.665Zm-2.473,0v-6.1h-.654v4.99l-3.892-4.99h-.577v6.1h.654v-4.99l3.892,4.99Zm-9.867.1a2.266,2.266,0,0,0,2.352-2.466v-3.737h-.654v3.752a1.706,1.706,0,1,1-3.4,0v-3.752h-.654v3.737A2.275,2.275,0,0,0,236.845,233.376Zm-7.791-.695v-2.275h1.485c.919,0,1.367.489,1.367,1.143s-.456,1.132-1.374,1.132Zm0-2.841v-2.069h1.316a1.042,1.042,0,0,1,1.132,1.04,1.016,1.016,0,0,1-1.132,1.029Zm-.65,3.432h2.062a1.854,1.854,0,0,0,2.087-1.779,1.424,1.424,0,0,0-1.1-1.459,1.4,1.4,0,0,0,.695-1.3,1.633,1.633,0,0,0-1.819-1.562H228.4Zm-8.235-3.432v-2.054h1.264c.772,0,1.22.353,1.22,1.029s-.448,1.022-1.22,1.022h-1.264Zm-.654,3.432h.654V230.44h.695l2.414,2.833h.849l-2.4-2.826a1.572,1.572,0,0,0,1.588-1.632,1.608,1.608,0,0,0-1.8-1.639h-1.992v6.1Zm-5.531,0h3.476v-.617h-2.826v-2.209h2.311v-.617h-2.311v-2.036h2.826v-.617h-3.476Zm-6.328-.617v-4.862h1.014a2.436,2.436,0,1,1,0,4.858h-1.014Zm-.654.617h1.665a3.058,3.058,0,1,0,0-6.1H207Zm-5.351,0v-6.1H201v4.99l-3.892-4.99h-.577v6.1h.654v-4.99l3.892,4.99Zm-10.3-.514a2.532,2.532,0,1,1,2.492-2.532A2.469,2.469,0,0,1,191.347,232.759Zm0,.617a3.153,3.153,0,1,0-3.153-3.153A3.118,3.118,0,0,0,191.347,233.376Zm-10.054-.1h.654v-2.826h3.565v2.826h.654v-6.1h-.654v2.653h-3.565v-2.653h-.654Zm-4.38,0h.643v-5.479h1.973v-.617h-4.594v.617h1.977Zm-6.6-2.506L171.5,228.1l1.183,2.672Zm-1.786,2.506h.669l.842-1.9h2.921l.842,1.9h.687l-2.723-6.1h-.526Zm-5.692,0h.643v-2.947l3.425,2.947h.97l-3.737-3.2,3.032-2.9h-.886l-2.808,2.672v-2.672h-.643v6.1Zm-4.553.1a3.123,3.123,0,0,0,2.653-1.426l-.54-.342a2.532,2.532,0,1,1,0-2.764l.54-.342a3.157,3.157,0,1,0-2.653,4.873Zm-8.426-2.609,1.187-2.672,1.183,2.672Zm-1.786,2.506h.669l.842-1.9H152.5l.842,1.9h.687l-2.723-6.1h-.526Zm-6.56,0h.654v-2.826h3.565v2.826h.654v-6.1h-.654v2.653h-3.565v-2.653h-.654Zm-8.235-3.432v-2.054h1.26c.772,0,1.22.353,1.22,1.029s-.448,1.022-1.22,1.022h-1.26Zm-.654,3.432h.654V230.44h.695l2.414,2.833h.849l-2.4-2.826a1.572,1.572,0,0,0,1.588-1.632,1.608,1.608,0,0,0-1.8-1.639h-1.992v6.1Zm-5.531,0h3.48v-.617h-2.826v-2.209h2.311v-.617h-2.311v-2.036h2.826v-.617h-3.48Zm-6.328-.617v-4.862h1.014a2.436,2.436,0,1,1,0,4.858h-1.014Zm-.654.617h1.665a3.058,3.058,0,1,0,0-6.1H120.11Z" transform="translate(-0.354 -119.438)"/><path d="M654.551,62.207a4.223,4.223,0,0,1,2.9,1.279,63.211,63.211,0,1,1-89.394,89.394,4.219,4.219,0,1,1,5.88-6.052l.088.088a54.774,54.774,0,0,0,77.462-77.462,4.222,4.222,0,0,1,3.065-7.247Z" transform="translate(-282.877 -15.158)"/><path class="c" d="M684.514,38.24a54.783,54.783,0,0,1,0,109.566,4.219,4.219,0,1,1-.132-8.437h.132A46.3,46.3,0,0,0,724.625,116.2v0l0,0a46.3,46.3,0,0,0,0-46.34l0,0v0a46.292,46.292,0,0,0-40.111-23.17,4.219,4.219,0,1,1-.132-8.437Z" transform="translate(-354.638)"/><path class="d" d="M633.259,61.3a46.325,46.325,0,0,1,32.787,79.09,4.22,4.22,0,0,1-6.03-5.905l.059-.059A37.915,37.915,0,1,0,606.44,80.821a4.219,4.219,0,0,1-6.052-5.88l.088-.088A46.217,46.217,0,0,1,633.259,61.3Z" transform="translate(-303.383 -14.586)"/><path class="a" d="M969.165,191.879h3.486v-6.5h3.683c4.445,0,6.83-2.669,6.83-6.37,0-3.674-2.359-6.371-6.783-6.371h-7.216Zm3.486-9.368v-6.962h3.195c2.612,0,3.768,1.41,3.768,3.458s-1.156,3.5-3.749,3.5Z" transform="translate(-537.394 -85.008)"/><path class="a" d="M1022.7,191.879h3.487v-7.047h3.55l3.778,7.047h3.888l-4.16-7.629a5.459,5.459,0,0,0,3.458-5.459c0-3.674-2.37-6.154-6.784-6.154H1022.7Zm3.487-9.941v-6.389h3.193c2.6,0,3.767,1.194,3.767,3.242s-1.165,3.148-3.749,3.148Z" transform="translate(-571.256 -85.008)"/><path class="a" d="M1093.083,181.8c0-6.22-3.8-9.885-8.842-9.885s-8.842,3.665-8.842,9.885,3.785,9.885,8.842,9.885S1093.083,188.025,1093.083,181.8Zm-3.506,0c0,4.379-2.2,6.756-5.336,6.756s-5.336-2.377-5.336-6.756,2.2-6.755,5.336-6.755S1089.578,177.426,1089.578,181.8Z" transform="translate(-604.59 -84.555)"/><path class="a" d="M1145.34,172.636v13.53c-.011,2.029-.952,3.11-2.624,3.11a2.427,2.427,0,0,1-2.631-2.509h-3.465c0,3.552,2.594,5.374,5.964,5.374,3.712,0,6.2-2.255,6.21-5.976v-13.53Z" transform="translate(-643.312 -85.008)"/><path class="a" d="M1187.25,191.879h12.59v-2.922h-9.106V183.7h8.382v-2.922h-8.382v-5.224h9.029v-2.922H1187.25Z" transform="translate(-675.336 -85.008)"/><path class="a" d="M1238.18,191.879h3.487v-5.732l2.131-2.518,5.74,8.25h4.193l-7.508-10.608,7.442-8.635h-4.259l-7.5,8.842h-.235v-8.842h-3.487Z" transform="translate(-707.55 -85.008)"/><path class="a" d="M1291.81,175.558h5.946v16.321h3.458V175.558h5.946v-2.922h-15.35Z" transform="translate(-741.472 -85.008)"/><path class="e" d="M912.1,82a1.1,1.1,0,0,1,1.1,1.1v84.889a1.1,1.1,0,1,1-2.2,0V83.1A1.1,1.1,0,0,1,912.1,82Z" transform="translate(-500.604 -27.679)"/></g></svg>